<?xml version="1.0" encoding="UTF-8"?>
<svg enable-background="new 0 0 596.279 630.206" viewBox="0 0 596.279 630.206" xmlns="http://www.w3.org/2000/svg">
 <path d="m593.74 312.49c0 166.46-129.62 301.4-289.51 301.4s-289.51-134.94-289.51-301.4c0-166.45 129.62-301.39 289.51-301.39s289.51 134.94 289.51 301.39z" fill="#ff9766"/>
 <path d="m590.427,265.895c.052.915.119,2.35.168,3.494-.463-3.297-.787-4.847-.168-3.494z" fill="#930"/>
 <path d="m592.49 312.49c-0.111-12.026-1.177-31.037-1.899-43.101 2.368 10.464 5.28 39.453 1.899 43.101z" fill="#930"/>
 <path d="m595.252,262.939c.574,5.068.673,10.189 1.027,15.257-2.005-8.688-.094-7.318-1.027-15.257z" fill="#930"/>
 <path d="m593.064,268.878-1.279-.64c.105-2.723-.092-5.412-.125-8.135 .482,2.924 1.101,5.826 1.404,8.775z" fill="#930"/>
 <path d="m45.007,202.064c1.001-1.191 1.853-1.859 2.275-.933l-2.275.933z" fill="#930"/>
 <path d="m29.278,232.761c-.959,2.897-1.709,4.956-2.104,6.746 .326-2.085 1.014-3.744 2.104-6.746z" fill="#930"/>
 <path d="m57.152 173.96-2.475 5.413c0.675-1.756 1.55-3.714 2.475-5.413z" fill="#930"/>
 <path d="m372.73 24.214c5.287 2.163 10.105 4.624 13.835 6.212-10.723-2.19-11.041-4.42-13.835-6.212z" fill="#930"/>
 <path d="m11.578,393.251 1.33,1.26c.028,1.741-.149,2.679-1.33-1.26z" fill="#930"/>
 <path d="m11.747,237.024c.566-.011.884.438 1.032,1.135l-.625,1.761-.407-2.896z" fill="#930"/>
 <path d="m67.338,152.267c-.003-.073.055-.211.082-.334l3.072-3.852c-1.225,2.332-2.242,3.667-3.154,4.186z" fill="#930"/>
 <path d="m26.86,441.952c.412,2.288.676,4.564.632,6.7-1.579-4.73-1.641-7.202-.632-6.7z" fill="#930"/>
 <path d="m26.988,240.358-.049.035c.051-.22.168-.625.235-.886-.061.325-.135.555-.186.851z" fill="#930"/>
 <path d="m28.895 187.83c-1.294 2.463-2.331 4.831-3.537 7.475 0.975-3.345 2.359-5.955 3.537-7.475z" fill="#930"/>
 <path d="m372.733,24.214-4.488-1.825c2.199.549 3.485,1.16 4.488,1.825z" fill="#930"/>
 <path d="m579.766,226.992c-1.242-4.672-1.079-5.923-.663-6.99 .561,2.606.772,5.01.663,6.99z" fill="#930"/>
 <path d="m587.262,324.15 .072-1.908c.033.807-.008,1.418-.072,1.908z" fill="#930"/>
 <path d="m525.783,492.134c-.677.546-1.41,1.12-2.048,1.449 .735-1.382 1.61-1.811 2.048-1.449z" fill="#930"/>
 <path d="m401.783,611.571c11.612-5.373 24.699-8.254 34.899-12.991l-3.961.561c3.563-1.23 6.988-2.754 10.457-4.223l-.909-1.438c16.913-7.858 34.772-22.473 41.667-24.554l-3.378-.878c5.757-3.199 11.148-6.937 16.722-10.516l-9.871,5.704c17.212-13.654 41.53-36.729 44.36-40.591l-2.042.871c1.909-3.101 4.236-4.853 6.898-7.542l-3.032,1.278c20.86-25.724 22.964-35.204 40.955-67.033 3.999-9.168-2.837,4.788-3.715,4.52 1.497-5.316 7.567-16.549 9.279-18.847-3.336,1.749-8.763,16.045-5.873,4.627 4.337-7.068-4.225,4.248 1.922-8.778l4.838-4.194c2.271-7.791-1.415-2.273 2.895-14.205 5.77-13.473-2.266,18.109 5.447-4.185 3.29-11.501.418-25.557 5.535-47.411 1.041-19.442-5.835,9.372-1.777-16.962-1.416,5.558-2.541,11.121-4.184,16.573-.109-4.436-2.017-1.938.012-13.149 1.725-3.406 3.72-10.364 4.307-16.56-3.995,24.45-2.036-21.72-6.529.92 .26-2.801.505-5.604.557-8.419-.143,1.039-.441,1.295-.659.72l.064-11.19c-.646,6.923-1.794,23.214-3.639,15.512 .107-5.354-.074-10.714-.09-16.055-1.782,4.27-2.339-1.589-3.716-.646-1.193,15.53-3.466,30.865-6.839,45.863 1.416-1.601 2.778-8.149 3.517-5.545-.983,12.415-3.229,9.704-4.132,21.353 .784-1.587 1.676-3.16 2.377-4.779-.656.82-1.105,2.396-.836-.131-.167-4.181 1.135-5.749 1.978-5.653 1.176,4.374-2.545,15.758-4.466,18.85-3.59,14.675 2.198,3.797 1.864,7.143-4.578,6.899-7.197,24.444-12.031,32.773l3.878-5.024c-1.921,11.763-7.948,20.709-11.59,26.456l2.538-1.718c-7.195,14.467-7.191,24.071-18.27,31.833l1.749-.916c-3.148,5.893-7.915,15.054-13.177,19.141 .423.5.366,1.883-1.125,4.165-3.772,1.692-6.947,8.006-13.162,15.769 4.78-4.553 5.348-1.278 10.382-6.224-7.798,13.741-11.532,8.796-20.295,18.132-4.528,6.441 6.041-3.784 7.912-4.632-14.41,13.606-25.909,33.29-39.584,36.527 1.949-2.197 3.972-4.273 5.824-6.542-7.01,3.921-10.493,6.383-9.416,6.256 1.96-1.669 2.943-1.768 3.98-1.907-17.958,16.497-33.268,17.708-54.273,28.775 2.022.164 5.289-1.008 5.79-.305-9.716,5.668-11.829-.101-27.668,7.998l3.688-.053c-5.396,2.644-10.07,2.503-9.415,1.908 .976,5.025-36.161,10.068-47.911,16.676-9.167-.835-34.255-1.579-41.922-.781-11.177,2.454 9.765,3.282 5.659,5.734-8.841-.256-13.341-2.623-26.37-2.926 .15-2.541 25.69-3.147 1.83-6.499l-3.493,1.101c2.52.016 5.967-.233 9.409.373 6.875,2.057-4.271,1.373-5.953,1.932-8.62-1.044-17.212-2.364-25.656-4.313-1.377-2.869 13.707.308 15.41-.373-20.138-1.85-45.389-4.178-62.701-12.868l1.343,1.551c-21.695-11.274-15.363-.771-31.076-13.211-9.433-4.279 1.925,4.402-11.948-2.985-3.816-2.268-1.059-1.812-.216-1.71-15.954-10.706-8.703-2.183-22.116-14.097 .457,1.563.991,3.035 1.518,4.543-16.704-13.743-29.718-32.223-42.914-44.502-1.002,2.439 7.235,10.171 9.254,14.583-15.402-19.589-39.465-44.607-49.051-65.742 5.151,4.762-1.807-11.277 7.075.141-.57,4.697 4.646,9.422 8.793,15.854-2.579-12.934-29.143-43.158-25.27-49.409l-3.334-2.112c-1.135-3.28-2.878-11.919.052-6.656-3.43-7.421-6.806-14.912-9.664-22.623 .746,8.738 3.954,27.417 8.651,31.737 .687,7.489-5.511-8.786-5.483-1.939-2.844-17-5.615-8.934-10.456-25.861 5.265,6.524-.974-17.806 1.021-17.479-2.128-5.274-3.369-17.863-3.048-22.77-1.779-9.65-6.989-32.048-6.031-48.107-1.013,6.046-1.631,15.7-3.674,15.157 .39-7.991.505-16.619-2.009-18.09-3.217,28.444 5.418,8.813 4.977,34.236-1.969,6.565-1.618,13.637.246,26.75-2.805-5.574-2.949-2.848-5.227-4.953 2.28-16.912-5.5-42.243-2.225-63.734 2.114-8.869 4.796-2.169 6.931-21.959 .166,5.73.25,11.424.812,17.112-.842-18.742 1.834-4.333 3.436-19.556l-2.281,5.884c.198-9.394 1.225-12.822 3.12-17.791l-3.812,7.579c.269-5.1 1.014-14.56 2.852-14.389-.463-1.419-.94-1.934-1.42-2.011 .642-.938 1.35-3.254 2.264-9.151-.913,3.393-1.154,5.871-2.009,5.829 4.917-22.31-2.079-5.837 1.133-19.782-1.102,2.074-1.17-2.132-.076-7.15 4.032,1.323 12.644-25.421 18.144-31.179l-.102.087c2.771-5.69 6-11.157 9.067-16.64-1.988,3.278-1.341-.934.706-6.135l-.39.845c2.1-5.713-7.721,4.282 1.755-11.402l5.801-7.753c-.944,1.378-.766-.37-.636-1.314 2.026-2.648 4.153-5.222 6.212-7.819 4.611-15.073 17.714-22.309 27.593-36.874-2.988,4.156-8.201,9.916-7.145,6.51 1.834-2.97 5.482-6.705 7.792-8.272l-1.013.359c8.265-7.765 16.645-15.307 25.645-22.028-3.207.477-16.63,13.801-11.866,6.635 2.016-5.136 10.83-10.061 15.427-13.989 .181,1.437-7.353,9.657 1.385,2.631 .648-1.365 8.183-9.06 3.738-6.543 9.577-6.606 23.813-15.558 33.676-19.045 2.528-2.12-2.081.063-3.653.812l-.521.747c-6.054,3.294-2.574-2.044-13.173,6.701-3.313-2.663 15.676-12.12 25.946-18.256-6.001,2.35-11.992,4.87-17.887,7.634 24.638-23.051 69.223-34.689 100.719-39.581-9.139,2.74-16.939,3.846-15.176,6.439 19.638-2.94 16.952-3.007 36.538-5.061l-1.672.06c10.015-2.766 24.058-.271 30.723-3.018-4.513-1.586-14.499,1.955-14.882-1.444 8.368-.179 16.728-.325 25.081.156-7.843-2.408-25.14-.487-34.673.128-6.867.754 13.868-.686 10.702,1.896-23.194,1.404-28.607.672-40.679-.462-7.497-.905 9.729-4.477 14.173-4.871 15.634,1.19 37.317,1.26 60.79,1.492 4.352-.494 8.758-1.133 13.156-1.317 11.217,3.911 5.671,7.376 26.022,10.927-1.86-1.12-3.754-2.148-5.679-3.097 4.619.027 7.567.727 9.737,1.189-8.373-3.538-17.7-6.822-25.668-9.31 12.65-2.44 33.951,8.011 50.038,14.5-.653-.854-6.459-2.794-7.987-4.261 25.867,6.453 48.717,23.216 65.254,34.212 8.194,2.928-13.739-9.603-8.973-9.619 8.778,6.063 20.066,10.816 21.096,14.472-1.78-5.68 20.021,14.243 5.364-.478 32.805,21.119 60.457,55.433 78.808,89.436-.132-2.153.581-2.61 2.024-1.567-6.769-11.351-17.575-27.497-20.588-34.585 6.942,5.691 10.811,17.788 12.935,19.279-1.7-4.255-7.229-11.164-5.954-12.396 8.562,7.972 9.84,15.031 13.996,21.892-.991-1.096-2.012-2.168-3.091-3.198 11.191,22.516 2.575,14.526 15.425,37.29 6.064,7.655 1.507-.771 3.703-2.082 2.137,5.874 12.319,23.546 11.916,30.616-2.022-4.937-3.767-9.982-6.015-14.82 3.677,10.591 7.125,20.566 8.574,28.231 .274-.927.614-1.703.095-4.003 2.117,8.595 5.062,19.639 4.469,24.412l3.199,1.814c-2.136-4.955-6.625-20.074-6.099-23.074 2.873.706 5.89,16.663 7.417,23.527-6.822-30.242-3.453-32.113-14.976-56.209l1.04,4.498c-8.097-14.489-13.081-30.971-20.794-43.411 2.612,3.181 3.945,3.454 3.317,1.555-18.42-26.519-37.493-52.385-66.326-75.408l-6.903-9.113-1.801,1.165c-14.987-9.978-1.363-4.654-10.946-11.388 3.654,2.583 2.765,2.423 3.233,3.381-16.093-13.828-10.608-5.217-20.228-11.902 3.793,4.553 18.417,13.063 12.506,12.47-15.479-14.202-45.238-27.086-46.178-32.599-36.221-14.564-83.885-26.042-117.174-25.721-4.508.977 2.795.603 1.122,1.331-13.282-3.343-43.407,5.034-43.814,2.81-6.132,1.667-8.356,4.115-9.889,5.054-8.353.286-18.234,1.926-28.483,4.712l7.627-1.521-.721.573-10.807,2.162 .39-.28c-25.577,7.063-52.868,20.826-74.375,31.997 12.516-6.202-1.244,4.434 4.764,1.718-12.555,2.829-36.573,20.37-52.869,37.751 .665.538-.137,2.291 2.29.832-3.65,2.802-7.293,5.645-10.741,8.708l1.99-.667c-16.233,18.23-35.492,37.707-42.046,52.949 5.684-8.321 6.439-7.918 8.098-8.032-9.589,14.736-17.422,29.302-26.59,47.729 .656-.886 1.224-1.481 1.507-1.361-1.934,5.026-4.996,10.745-7.453,15.745l1.64,1.412c-4.452,9.521-7.444,22.784-11.809,34.536 .847,5.115-8.155,29.306-8.331,43.968-.963,5.458 3.348-11.711 1.953,3.642-4.778,1.884-1.325,20.004-5.901,21.114 .385,4.565 1.085,9.106 1.793,13.624l-2.294,3.084c4.914,11.349-1.216,17.844 2.401,35.021 .394-.975.333-2.845.778-2.005 .083,5.614 2.238,18.415-.738,8.727 .917,9.276 7.731,40.2 6.646,25.854-1.057,1.315-2.89-11.598-3.411-17.175 1.972.368 4.295,14.034 7.178,16.832-.103.479.035,2.316.054,3.668l1.737,1.584c2.167,17.277 9.763,33.239 12.216,45.856 .906.409 2.447,3.027 4.839,8.48l-2.194,1.313c2.801,5.517 5.34,11.168 8.462,16.516-.319-3.125-.64-6.212-.758-9.366 9.84,17.471 13.963,31.625 23.249,45.678 5.663,1.015 18.855,26.877 32.153,34.354-2.864-3.27-5.465-6.768-8.101-10.21 18.608,20.602 23.678,21.621 43.01,38.674-17.985-12.644-18.103-12.558-43.033-33.195 23.508,22 39.595,40.297 66.463,53.767-1.189-1.889-7.194-6.256-.452-3.429 3.665,5.144 24.326,13.471 19.29,13.67 8.668,3.312 11.161,1.713 16.338,3.797 8.955,5.008 18.174,9.65 27.67,13.86l-.749-.766c50.935,9.781 96.653,22.477 149.218,10.084l-1.276-1.145c4.48-.064 8.913-.502 13.386-.891-10.415,1.133 3.988-2.71 4.441-4.05 11.113-1.921 22.174-4.451 33.111-7.631 .263-1.399-2.522-3.072-10.145.109zm-369.34-160.401c-1.154-2.369-2.096-4.834-3.098-7.27-.75-1.402-1.431-2.891-1.891-4.643l1.891,4.643c1.885,3.612 4.127,5.836 3.098,7.27zm373.579-428.969-11.866-4.507c2.538.708 10.87,4.518 7.761,2.17 1.687.772 6,2.282 4.105,2.337zm-354.353,429.931-1.157-5.392-3.385-3.003 4.542,8.395zm57.651,78-6.696-8.059-.845-.415c2.173,2.794 4.508,5.447 6.766,8.192l.775.282zm93.126,75.695c-.616-.335-1.213-.584-1.891-1.06l1.891,1.06c7.729,3.966 11.806,2.404 17.649,7.106-9.053.116-13.381-4.628-17.649-7.106zm-158.769-140.22c-1.446.991 4.495,12.284 5.652,16.072 3.179,4.479.531-2.685.396-4.84 1.568,2.212 2.386,3.843 4.052,7.183 1.98-3.735-6.479-7.698-10.1-18.415zm-28.349-232.609c-.172.904-.395,1.796-.516,2.712 1.249-3.171 2.613-6.298 3.91-9.428l-3.394,6.716zm16.647-44.183c4.122-4.313 9.692-17.478 14.934-25.931-.482-3.216-7.233,4.706-12.095,15.484-7.01,11.969.595,5.91-2.839,10.447zm95.096,370.87c-5.333-5.123-10.683-14.348-22.291-22.579 2.281,2.811 4.844,5.341 7.266,8.036l-2.066-1.618 1.04,2.977c.336-4.921 11.008,9.146 16.051,13.184zm-41.324-454.907c7.573-6.729 21.537-18.127 21.405-15.801-1.474-2.497-12.875,6.579-15.728,10.064-1.644,2.055-3.049,3.351-5.677,5.737zm4.368-.008c-3.349,4.154-.6,3.926-7.964,10.664-.038-2.23-5.681-1.8-13.288,10.529 8.764-7.241 10.395-7.152 20.646-17.247l.606-3.946zm-16.489,10.323-3.278,4.99c-3.315,6.346-1.528,9.327-9.694,15.592 3.044-5.302 6.244-10.522 9.694-15.592 .739-1.444 1.768-3.088 3.278-4.99zm93.825-78.507-5.775,1.96c5.259-2.695 6.086-2.643 5.775-1.96l4.792-1.595c-11,7.051-5.533,3.001-4.792,1.595zm-85.711,69.75c3.774-4.36 7.878-8.427 11.801-12.644-3.467,4.354-10.252,12.651-11.801,12.644zm83.552-65.682c-6.332,3.503-21.986,14.016-19.782,12.531 .405-2.35 15.289-11.158 19.782-12.531zm342.712,51.212-5.132-2.203 7.487,7.634-2.355-5.431zm-92.904-59.769-5.664-2.49-2.812-.045 8.476,2.535zm-120.872-21.507c.533-.454.226-1.008-.696-1.453-1.8-.128-3.346-.354-4.106-.759 1.599-.048 3.123.292 4.106.759 4.613.364 11.437-.188 14.611-.595-1.875-1.174-9.005-.812-11.813-1.384 10.767-3.176 34.208,5.794 27.797-1.557 4.516.974 19.576,4.58 14.146,5.215-11.949-2.022-34.942-2.254-44.045-.226-.46.381-1.499.702-3.564.809 .611-.268 1.97-.542 3.564-.809zm-144.51,47.948c-3.69,2.259-5.376,3.134-6.215,3.419-3.356,1.692-6.036,2.821-5.726,1.374 7.803-4.691 3.581-.575 5.726-1.374 2.075-1.012 4.252-2.18 6.215-3.419zm2.557,1.963c-6.421,2.999-12.655,6.385-18.883,9.901l6.625-3.031c-4.013,2.455-8.132,4.81-11.991,7.532 2.623.211 14.868-6.813 24.249-14.402zm-27.241,18.574-3.324.584 4.539-1.529-1.215.945 .743-.12c-6.291,4.74-12.356,9.813-18.206,15.12 5.591-5.264 11.446-10.254 17.463-15zm-110.144,209.348c4.826,9.248 5.768-20.569 9.707-24.536-1.525-1.223-3.588-10.725-6.538,12.319 .584-20.239 5.52-11.784 2.623-24.443-1.416,9.526-4.564,20.828-4.786,22.533 .429-3.788.691-7.602 1.354-11.36-4.51,5.939-.786,17.673-2.36,25.487zm15.787,121.514c1.229,4.56 2.713,9.039 4.282,13.495-1.787-4.656-3.427-9.361-4.846-14.143l.564.648zm276.941,202.233c-.977-1.195 17.788-4.318 22.484-2.43-9.521,1.336-20.032,1.362-22.484,2.43zm149.051-44.958c-4.8,2.842-9.906,5.159-14.814,7.748 1.208-4.294 12.854-7.405 18.985-12.388 3.114-.25-2.568,2.337-4.171,4.64zm78.282-74.73 3.424-4.096c-1.897.954-3.729,1.933-5.649,2.824l2.225,1.272zm-15.617,10.585c1.671-2.018 8.85-10.653 7.982-7.192-2.61,2.465-5.204,4.917-7.982,7.192zm53.05-91.621c-1.462,1.693-2.992,3.345-4.599,4.948 .785-2.134 1.443-4.311 2.064-6.499l2.535,1.551zm-.492,7.049c-1.03,1.852-1.917,2.464-2.763,2.753-1.896,3.195-4.356,8.711-6.096,14.401 1.616-.339 2.523-4.543 4.226-7.697-.856,2.479-1.791,6.745-4.325,11.363 .159-6.384-1.557-2.395-3.149-3.848 5.146-14.842 6.797-13.45 9.345-14.22 1.149-1.854 2.163-2.923 2.762-2.752zm-26.31,55.395c-.89,1.914-1.628,3.627-1.775,4.521l-.938.546c.399-2.327 1.553-3.814 2.713-5.067 .989-2.118 2.214-4.526 3.448-6.992-.547-2.346-7.26,6.28-9.539,8.169 3.002-4.14 7.069-6.915 9.375-13.491-.873.534-.765-.379-2.813,3.381l4.211-8.403c7.315-8.316 3.021,1.029-1.234,10.345 .181.471.105,1.314-.527,3.188-.642,1.515-1.799,2.583-2.921,3.803zm30.858-62.313c.776-.749.895,1.105 2.362-1.249l2.105-4.886c1.186-6.999-2.424.334-4.467,6.135zm-218.359,198.846c3.317-1.212-4.98-1.498-12.645.163 1.255-1.038 2.506-2.011 3.721-3.137 .447,1.606 15.925-1.344 17.612-1.844 3.216,1.575-2.903,2.309-8.688,4.818zm-319.218-178.122c.786,4.538 11.124,21.827 9.768,25.798 6.288,4.355-5.36-16.281-9.768-25.798zm-4.236-.798c-.684-1.945-1.216-3.52-1.727-4.871-1.457-6.134.815-6.213-3.775-15.993 .191,2.775 2.333,6.676 2.717,9.379-1.718.021-.874,1.398 1.058,6.614 .358,1.328.793,2.828 1.727,4.871zm139.37,153.949c1.798,1.896 3.662,3.705 5.587,5.438 3.559,1.575 7.078,3.232 10.663,4.732-5.485-3.35-11.01-6.536-16.25-10.17zm119.056,35.727c-.885-1.444 12.507-.902 15.307-.538-.887-1.619-9.828-1.542-16.945-1.974-.922-.171-2.404-.27-4.67-.478 1.38.255 2.921.417 4.67.478 2.646.489.752,1.351.723,1.977l-3.596.405 9.936.765-5.425-.635zm204.872-71.922c5.053-6.467 6.181-6.627 10.354-10.149-.689,1.804-5.902,6.859-10.354,10.149zm-271.201,63.136c13.321,2.78-5.577-4.32 3.221-2.772l-6.823-1.82c11.471,1.45 7.346,4.16 15.349,5.615l-5.353-.922c-4.617.648 7.832,3.083 8.527,4.639-6.435-.63-20.294-5.789-14.921-4.74zm281.42-70.984c8.395-10.747 9.258-6.528 15.075-12.433-6.171,9.127-7.607,5.589-15.075,12.433zm-185.07,87.127-.875.412c-3.743-.001-7.491-.393-11.218-.577l.854-.356c3.735.182 7.491.575 11.239.521z" fill="#930"/>
 <path d="m506.84 517.22c1.963-2.471 3.393-3.974 4.658-5.151-1.42 1.675-2.955 3.411-4.658 5.151z" fill="#930"/>
 <path d="m34.486,392.701c-.521-.164-1.045-1.172-1.583-2.562 .305.104.769.733 1.583,2.562z" fill="#930"/>
 <path d="m30.004,368.285-.148-.915c.015-.228.018-.542.024-.797l.124,1.712z" fill="#930"/>
 <path d="m575.43 220.31c-0.424 5.773-1.954-4.851-3.289-8.939 1.328 4.065 3.32 5.226 3.289 8.939z" fill="#930"/>
 <path d="m566.71 186.85c0.415 2.671 1.591 6.215 3.075 10.472-1.062-2.655-2.167-5.502-3.075-10.472z" fill="#930"/>
 <path d="m576.03 213.44c-2.424-6.274-4.842-11.572-6.246-16.119 1.562 4.1 3.963 7.247 6.246 16.119z" fill="#930"/>
 <path d="m516.21 109.12c2.604 4.92 9.672 12.528 9.713 12.509-15.479-16.543 1.113 5.029 1.1 7.31-8.121-11.316-7.113-12.329-10.813-19.819z" fill="#930"/>
 <path d="m495.62 87.167c1.71 1.506 3.418 2.99 4.792 4.125-1.812-1.38-3.385-2.716-4.792-4.125z" fill="#930"/>
 <path d="m488.43 82.454c-5.777-5.344-7.038-8.193-9.081-11.424 8.183 5.146 11.301 11.012 16.268 16.138-4.207-3.75-8.154-7.531-7.187-4.714z" fill="#930"/>
 <path d="m264.694,23.238c1.744-.064 5.941-.631 6.16.196-4.202.628-8.446.991-12.604,1.89-5.124.509 3.9-1.739 6.444-2.086z" fill="#930"/>
 <path d="m217.56 30.249c-9.823 3.316-4.011 3.591-9.131 4.862l-0.432-2.903 9.563-1.959z" fill="#930"/>
 <path d="m218.74,14.538 3.145-.631-3.512.933 .367-.302z" fill="#930"/>
 <path d="m173.221,52.766 7.732-.491c-7.916,3.294-9.269,1.123-7.732.491z" fill="#930"/>
 <path d="m141.58 75.736 5.391-2.757c-5.197 3.437-10.444 6.844-15.408 10.655 3.268-2.723 6.555-5.425 10.017-7.898z" fill="#930"/>
 <path d="m105.35 105.68-0.641 1.712c-3.073 3.001-6.249 5.929-9.267 9.011 3.225-3.645 6.615-7.143 9.908-10.723z" fill="#930"/>
 <path d="m148.02 559.13c-6e-3 3.534-16.311-9.682-21.266-13.238 5.267 0.079 12.398 11.346 21.266 13.238z" fill="#930"/>
 <path d="m495.08 530.94c-5.083 4.245-9.96 8.716-15.297 12.624 11.048-10.681 3.267-2.732 15.297-12.624z" fill="#930"/>
 <path d="m247.887,297.491c2.266-.313 4.541-.606 6.806-.834-1.16.044-2.309.007-3.484-.081-1.496.05-2.234.475-3.322.915z" fill="#930"/>
 <path d="m261.011,295.974 1.205-.13 1.012-.25-2.217.38z" fill="#930"/>
 <path d="m272.813,294.208c-2.111.14-4.1.451-6.042.768 1.73-.094 3.723-.353 6.042-.768z" fill="#930"/>
 <path d="m263.333,294.981c.759.121 1.118.3-.063.603l-.043.01 3.543-.619c-1.281.071-2.428.067-3.437.006z" fill="#930"/>
 <path d="m263.333,294.981c-.74-.116-1.871-.172-2.278-.242 .669.109 1.424.193 2.278.242z" fill="#930"/>
 <path d="m265.756,289.644c1.16-.299 1.043,1.143 3.382.544 5.542-1.054 10.274-2.065 15.499-2.599 2.369-.538 6.267.631 8.608.137 5.569-.801 19.833-3.73 11.355-3.037-12.743,1.021-20.974,2.322-32.343,3.668-9.168,1.701-17.978,3.267-27.292,5.177-2.622.442-5.106.688-7.605.949 3.266-.246 6.618-.504 10.315-.822 4.865-.352 10.513-2.747 18.081-4.017z" fill="#930"/>
 <path d="m197.916,304.84 3.429-1.132c5.424.018 10.846-1.447 16.308-2.704l-2.573-.29c-3.157.605-3.452,1.055-.585.894-6.576.225-12.649,1.333-18.814,2.611 .455.306.453.757 2.235.621z" fill="#930"/>
 <path d="m192.057,305.021 3.623-.802-.166-.095-3.584.885 .127.012z" fill="#930"/>
 <path d="m297.926,290.614c15.836-1.241 30.804-2.002 45.402-1.993 1.116-.293 1.913-.625 3.414-.483 1.153.229 2.293.367 3.444.451 2.135-.027 4.249-.004 6.36.048l2.262-.076 .045-.006c1.199-.137.866-.363.133-.586-.829-.166-1.587-.364-2.233-.551 .41.115 1.509.331 2.233.551 .985.203 2.121.354 3.417.492 1.952-.026 3.96.034 6.067.267-2.356-.001-4.357-.102-6.067-.267l-3.595.1-1.054.106c4.862.134 9.685.382 14.464,1.002 1.093.083 2.145.189 2.985.288 3.434.318 6.906,1.097 8.539,2.586 .765.296 1.458.737 2.184,1.121l-.351-.328c.306.195.527.392.709.568 2.923,1.802 4.925,4.645 6.138,7.904 1.081,2.006 1.982,4.274 2.639,6.627 .012-.001-.157,1.703-.272,2.541 .514.912.942,2.296 1.272,3.92 .178-1.998.366-3.871.369-5.587 .234-2.656-2.427-5.088-2.259-8.246-.168,3.158 2.493,5.59 2.259,8.246-.003,1.717-.191,3.589-.369,5.587 .698,3.424.916,7.934.637,11.604-1.099-4.406-.917-8.234-.637-11.604-.33-1.624-.759-3.009-1.272-3.92 .115-.838.284-2.542.272-2.541-.656-2.354-1.558-4.621-2.639-6.627 2.269,6.461 2.632,13.839 3.403,21.176 .787,24.103 11.125,46.524 7.651,68.679-3.792,22.191-17.952,42.148-38.737,54.64-22.241,13.913-47.485,20.891-71.891,22.359-24.117,1.253-48.394-2.436-65.252-16.996-17.018-14.486-25.254-37.664-28-61.897-2.78-18.567-4.988-54.146-5.325-73.093-2.979-25.333-8.761-11.987-9.045-10.789-4.586,15.7-2.301,27.647-2.768,59.808 .108-21.806 3.653,15.568 5.587,36.626 .955,15.233 6.826,34.244 20.37,50.234 13.369,16.47 35.023,25.4 54.028,28.438 9.641,1.716 19.972,1.745 31.399.909 29.625-1.906 57.577-11.366 81.646-28.473 24.047-16.76 42.909-47.151 38.895-80.613-2.217-16.9-7.582-29.312-9.661-41.836-1.501-9.458-1.279-19.668-3.668-28.589-1.344-6.994-7.924-14.898-14.646-16.807-6.472-2.352-12.07-2.535-17.414-2.713 5.954.389 11.27.813 17.19,3 5.999,1.801 12.458,8.337 14.345,15.694 2.378,9.786-2.108-6.986-9.585-10.909-2.445-1.686-6.049-4.878-8.829-5.268-5.773-1.565-10.844-1.316-16.602-1.27-2.453.202-2.108-1.19-3.341-1.084-7.845.055-13.688,2.102-18.594,1.765-3.738-.154-7.094-.319-10.374-.485-2.077.011-4.133.041-6.299.193l-4.153.543c1.123.384 1.547.896 1.951,1.414-2.021.011-4.878-.174-6.92-.161 2.042-.014 4.899.172 6.92.161-.404-.518-.828-1.03-1.951-1.414-10.049,1.171-21.587,2.855-32.288,4.288l.166.111c6.26-.679 12.436-.928 18.989-.551-2.84-.111-2.512-.529.709-.843l2.516.529c-5.589.802-11.135,1.601-16.519.959l-3.553.734c-1.788-.041-1.736-.482-2.142-.828l-3.707.471c2.691.387 11.002.666 11.003.694z" fill="#930"/>
 <path d="m362.545,288.51c-.872.005-1.917.01-3.037.026 4.065.156 8.126.388 12.134.887-2.047-.91-5.572-1.006-9.097-.913z" fill="#930"/>
 <path d="m429.328,392.158 1.378-.321c-.257-.03-.524-.118-.818-.292-.337-.072-.409.278-.56.613z" fill="#930"/>
 <path d="m431.987,391.547 .244-.055 .169-.181-.413.236z" fill="#930"/>
 <path d="m434.239,390.479c-.44.059-.82.24-1.183.444 .373-.001.771-.133 1.183-.444z" fill="#930"/>
 <path d="m432.266,390.731c.205.16.336.352.143.574l-.008.007 .656-.389c-.279-.006-.544-.076-.791-.192z" fill="#930"/>
 <path d="m432.266,390.731c-.201-.154-.475-.273-.585-.365l.585.365z" fill="#930"/>
 <path d="m431.404,385.765c.178-.215.539,1.156.892.708 .929-.728 1.608-1.621 2.567-1.938 .332-.438 1.531.756 1.857.296 .924-.754 2.592-3.552 1.196-2.849-2.104,1.062-3.42,1.988-5.454,2.894-1.516,1.111-3.052,2.211-4.729,3.224-.498.199-1.01.221-1.52.256 .688.046 1.396.088 2.17.099 1.043.106 1.678-1.969 3.021-2.69z" fill="#930"/>
 <path d="m419.174,393.908 .577-.646c1.299.713 2.291.042 3.297-.621l-.664-.561c-.611.238-.586.64.052.798-1.495-.513-2.734-.313-3.933.146 .176.352.273.785.671.884z" fill="#930"/>
 <path d="m417.807,393.329 .696-.304-.061-.112-.669.389 .034.027z" fill="#930"/>
 <path d="m438.713,387.501c3.014-1.21 5.739-2.616 8.344-4.147 .027-.37-.033-.729.305-.783 .33.055.61.033.861-.033l1.09-.759 .298-.375 .002-.012c.089-.274-.114-.393-.369-.457l-.691-.11c.142.04.439.049.691.11 .284.02.549-.036.783-.179 .219-.357.466-.69.828-.95-.216.468-.508.774-.828.95l-.416.647-.088.232c.849-.571 1.524-1.346 2.31-2.018l.354-.54c.408-.626.563-1.404 1.411-1.368l.348-.438-.164.017 .225-.096c.449-.64 1.064-1.199 1.392-1.928-.027-.598-.123-1.215-.104-1.764-.001.002.571-.134.862-.21-.243-.33-.342-.689-.315-1.046-.564.233-1.146.398-1.546.589-.836.14.847,1.612-.59,1.564 1.437.048-.246-1.425.59-1.564 .399-.19.981-.355 1.546-.589 .076-.743.42-1.581 1.302-2.161 .327,1.077-.327,1.783-1.302,2.161-.026.356.072.716.315,1.046-.291.076-.863.212-.862.21-.02.549.076,1.166.104,1.764 .662-1.388 1.664-2.73 2.029-4.306 3.365-10.244.581-19.75-3.174-29.693-2.309-5.412-5.546-10.244-9.239-14.626-7.735-8.904-18.02-11.18-27.502-17.674-3.8-2.419-11.702-3.372-15.67-3.81-5.664,1.501-3.744,7.959-3.599,8.33 2.275,5.625 5.203,3.076 10.614,7.426-3.795-2.614 3.952-2.618 6.696,2.011 3.609,6.713 12.202,5.486 16.847,10.395 1.024,1.227 2.583,1.914 3.813,3.26 5.593,7.277 11.153,13.739 12.03,24.29 .318,2.492 1.479,4.523 1.847,6.673-.019,1.522-1.146,2.736-1.651,3.645-.726,1.517-1.116,2.999-1.815,4.539 1.088-1.411 1.382-2.66 2.022-4.314 .356-1.19 1.436,1.618 1.078,2.589 .033.513-1.585.104-1.514.584-.418.674-.578,1.56-.904,2.554-.054.521-.998-.542-1.017-.29-.685,1.028-.449,3.084-1.361,3.336-.67.212-1.334.313-1.939.438-.358.126-.703.259-1.005.51l-.488.684c.389.297.709.731 1.022,1.162-.378.114-1.022.06-1.403.161 .381-.102 1.025-.047 1.403-.161-.313-.431-.634-.865-1.022-1.162-1.274,1.569-3.015,3.2-4.82,4.498l.073.107c1.101-.615 2.304-.851 3.822-.65-.64-.04-.729-.434-.191-.785l.741.429c-.826.877-1.751,1.679-3.127,1.103l-.501.71c-.403-.053-.542-.478-.744-.806l-.65.376c.713.472 2.608.706 2.613.704z" fill="#930"/>
 <path d="m450.076,380.766c-.099.157-.208.36-.378.519 .664-.523 1.269-1.127 1.915-1.69-.819-.139-1.162.497-1.537,1.171z" fill="#930"/>
 <path d="m199.916,337.494c2.867,11.502 15.394,18.764 25.178,23.759 2.534,1.294 4.028-2.859 1.53-4.135-8.212-4.192-19.951-10.699-22.367-20.39-.683-2.742-5.03-1.995-4.341.766z" fill="#930"/>
 <path d="m201.793,382.206c8.92,14.18 19.717,27.943 37.442,30.115 2.83.347 3.229-4.046.416-4.391-16.024-1.963-25.842-14.849-33.875-27.617-1.493-2.373-5.497-.515-3.983,1.893z" fill="#930"/>
 <path d="m220 430.87c17.012 8.526 33.745 16.869 53.194 17.107 2.827 0.034 3.257-4.355 0.416-4.391-19.078-0.233-35.41-8.497-52.08-16.852-2.545-1.275-4.041 2.878-1.53 4.136z" fill="#930"/>
 <path d="m273.4 476.35c-10.187-1.7-16.979 0-18.677 10.188 22.073 13.584 117.16 10.188 122.26-28.867 5.096-33.959-35.657 3.396-47.543 10.188-20.376 10.188-40.752 8.492-64.524 8.492" fill="#930"/>
 <path d="m115.815,462.454 .59-.19c-.136-.048-.294-.149-.491-.333-.189-.093-.122.225-.099.523z" fill="#930"/>
 <path d="m116.956,462.097 .105-.032 .032-.154-.137.186z" fill="#930"/>
 <path d="m117.781,461.325c-.206.006-.35.124-.474.278 .185.033.351-.038.474-.278z" fill="#930"/>
 <path d="m116.861,461.362c.147.164.266.353.234.544l-.002.005 .214-.308c-.139-.027-.29-.113-.446-.241z" fill="#930"/>
 <path d="m116.861,461.362c-.143-.158-.313-.29-.395-.383l.395.383z" fill="#930"/>
 <path d="m115.034,456.689c.031-.188.595,1.113.659.737 .292-.572.419-1.329.844-1.525 .063-.379 1.022.914 1.084.538 .292-.573.673-2.839.019-2.446-.948.662-1.465,1.317-2.285,1.979-.519.861-.964,1.809-1.524,2.627-.188.159-.437.151-.681.157l1.108.208c.559.175.287-1.7.776-2.275z" fill="#930"/>
 <path d="m111.334,463.549 .095-.567c.857.731 1.15.16 1.441-.41l-.496-.551c-.229.192-.095.565.266.742-.889-.542-1.446-.435-1.9-.069 .192.336.368.742.594.855z" fill="#930"/>
 <path d="m110.487,462.938 .254-.244-.063-.107-.215.324 .024.027z" fill="#930"/>
 <path d="m119.312,459.201c1.274-.64 2.523-1.133 3.772-1.55-.022-.292-.09-.613.101-.519 .196.183.354.282.49.332l.551-.168 .139-.185 .001-.009c.031-.191-.088-.378-.234-.54l-.395-.385c.083.093.251.226.395.385 .155.126.307.214.446.238 .123-.153.266-.273.474-.276-.124.239-.288.313-.474.276l-.213.311-.033.156 1.273-.357 .2-.218c.207-.304.415-.605.877-.06l.23-.058-.093-.097 .133.085 .975-.241c.085-.332.146-.728.263-1.003l.495.552c-.065-.36-.045-.626.042-.795-.337-.314-.679-.673-.936-.874-.497-.555.139,1.499-.654.391 .793,1.108.158-.945.654-.391 .256.201.599.56.936.874 .179-.36.652-.297 1.232.197-.118.713-.668.326-1.232-.197-.086.169-.107.435-.042.795-.165-.185-.495-.552-.495-.552-.117.275-.178.671-.263,1.003l1.937-.479c4.273-.949 7.803-2.729 12.125-3.962 2.36-.622 4.717-1.026 7.126-1.209 4.8-.366 7.771-3.803 13.412-2.438 2.115.418 4.797-1.548 6.275-2.382 1.088-3.081-2.499-8.136-2.739-8.404-3.416-4.146-3.214-1.072-7.059-2.674 2.476.776.083,3.629-3.049,1.149-4.644-3.836-6.28,1.665-9.82,1.753-.886.019-1.571.6-2.503.906-5.358.413-8.679,4.439-13.684,6.255-1.274.595-1.855,2.304-2.635,3.449-.686.58-1.817.33-2.456.622-1.001.468-1.663,1.315-2.235,2.26 .821-.658 1.34-1.313 2.286-1.977 .654-.393.273,1.874-.018,2.445-.064.378-1.023-.916-1.085-.537-.425.196-.552.951-.843,1.524-.063.377-.628-.926-.66-.738-.49.576-.215,2.451-.774,2.277l-1.108-.208c-.201.006-.395.022-.547.154l-.191.478c.27.354.522.823.774,1.296-.197.003-.558-.177-.756-.173 .198-.004.559.176.756.173-.252-.473-.505-.941-.774-1.296-.473,1.132-1.109,2.241-1.734,3.197l.065.11c.453-.365 1.009-.475 1.897.069-.36-.181-.494-.552-.265-.748l.495.552c-.292.573-.583,1.146-1.44.41l-.095.569c-.226-.112-.403-.521-.591-.853l-.257.24c.505.548 1.555,1.07 1.555,1.07z" fill="#930"/>
 <path d="m124.606,456.835-.202.215 1.078-.277c-.461-.548-.668-.245-.876.062z" fill="#930"/>
 <path d="m252.871,555.24 .234-.372c-.119.026-.292.028-.548-.004-.185.021.084.196.314.376z" fill="#930"/>
 <path d="m253.332,554.528 .043-.065-.09-.113 .047.178z" fill="#930"/>
 <path d="m253.3,553.676c-.125.091-.132.229-.1.383 .14-.057.194-.173.1-.383z" fill="#930"/>
 <path d="m252.749,554.09c.21.045.418.117.534.255l.003.004-.085-.29c-.107.04-.264.048-.452.031z" fill="#930"/>
 <path d="m252.749,554.09c-.203-.042-.404-.055-.522-.08l.522.08z" fill="#930"/>
 <path d="m248.275,551.811c-.112-.142 1.167.473.944.19-.222-.525-.632-1.079-.477-1.4-.212-.285 1.32.175 1.107-.104-.191-.507-1.445-2.237-1.632-1.682-.208.877-.132,1.543-.236,2.358 .263.833.642,1.675.862,2.47-.009.191-.176.303-.33.422l.866-.383c.485-.14-1.02-1.248-1.104-1.871z" fill="#930"/>
 <path d="m250.814,557.888-.355-.384c1.087.052.854-.419.626-.902l-.719-.115c-.007.224.351.391.711.336-.964.067-1.248.396-1.273.825 .37.113.782.275 1.01.24z" fill="#930"/>
 <path d="m249.818,557.913-.015-.265-.12-.035 .099.295 .036.005z" fill="#930"/>
 <path d="m252.868,551.652c.422-.944.928-1.783 1.481-2.563-.21-.194-.468-.393-.277-.401 .251.051.422.059.546.041l.254-.332-.029-.184-.005-.007c-.103-.145-.306-.231-.512-.29l-.519-.117c.117.033.314.06.519.117 .189.03.352.035.464,0-.013-.153.008-.291.151-.37 .068.213.002.326-.151.37l.053.297 .08.122 .649-.724-.002-.228c-.052-.29-.102-.582.568-.365l.122-.125-.126-.034 .146.012 .517-.527c-.154-.267-.364-.571-.459-.812l.692.215c-.274-.233-.43-.433-.478-.585-.432-.104-.896-.235-1.202-.286-.696-.213 1.051,1.024-.204.523 1.255.501-.492-.736.204-.523 .306.051.77.182 1.202.286-.105-.325.261-.452.972-.304 .371.557-.25.474-.972.304 .048.152.204.352.478.585l-.692-.215c.095.24.305.545.459.812l1.024-1.041c2.337-2.205 3.722-4.682 6.021-7.065 1.29-1.265 2.703-2.338 4.3-3.328 3.206-1.941 3.151-5.56 8.022-6.785 1.757-.579 2.38-3.207 2.875-4.44-1.261-2.637-7.147-4.528-7.48-4.635-5.098-1.467-2.905.537-6.526.842 2.148-.38 2.473,2.531-1.289,1.876-5.641-1.13-3.166,3.281-5.64,4.562-.605.308-.725.959-1.185,1.491-3.48,2.085-3.431,6.191-5.882,9.394-.545.91.083,2.37.255,3.533-.12.693-1.074.954-1.343,1.421-.414.738-.346,1.616-.147,2.519 .161-.797.112-1.474.361-2.332 .214-.542 1.375,1.257 1.536,1.777 .196.296-1.302-.26-1.105.038-.175.309.217.899.379,1.42 .198.292-1.036-.41-.938-.265 .022.608 1.454,1.843.958,1.946l-.892.319c-.133.089-.255.184-.272.341l.188.415c.42.133.904.353 1.391.576-.132.083-.497.109-.629.195 .132-.086.497-.112.629-.195-.487-.224-.971-.443-1.391-.576 .43.99.744,2.017.968,2.921l.119.046c.06-.434.365-.744 1.331-.737-.364.024-.706-.172-.683-.4l.705.174c.189.511.384,1.011-.695.869l.322.422c-.229.018-.627-.183-.98-.327l-.011.27c.714.145 1.776.066 1.775.067z" fill="#930"/>
 <path d="m254.833,547.928v.226l.567-.595c-.672-.215-.621.076-.567.369z" fill="#930"/>
 <path d="m410.81,534.137-.353-.501c-.006.144-.057.324-.174.565-.032.207.249.049.527-.064z" fill="#930"/>
 <path d="m410.139,533.166-.061-.09-.155.016 .216.074z" fill="#930"/>
 <path d="m409.164,532.619c.068.191.221.294.404.363-.023-.185-.137-.322-.404-.363z" fill="#930"/>
 <path d="m409.469,533.478c.113-.189.258-.359.448-.387h.006l-.354-.109c.013.14-.024.31-.1.496z" fill="#930"/>
 <path d="m409.469,533.478c-.108.184-.185.385-.249.489l.249-.489z" fill="#930"/>
 <path d="m405.566,536.629c-.187.029.884-.901.51-.846-.625-.097-1.379.025-1.687-.309-.376.062.566-1.241.192-1.181-.628-.093-2.865.28-2.308.763 .896.669 1.661.94 2.522,1.494 .961.218 1.982.347 2.918.622 .204.129.267.364.342.591l-.117-1.104c.009-.576-1.691.251-2.372-.03z" fill="#930"/>
 <path d="m413.126,538.052-.567.077c.457-1.026-.171-1.135-.795-1.242l-.386.632c.247.159.565-.077.633-.472-.267,1.001-.009,1.496.466,1.817 .267-.279.605-.565.649-.812z" fill="#930"/>
 <path d="m412.78,539.033-.304-.168-.085.092 .37.107 .019-.031z" fill="#930"/>
 <path d="m406.691,531.837c-.979-1.004-1.843-2.004-2.625-3.039-.269.117-.549.286-.519.076 .109-.244.153-.425.157-.569l-.331-.462-.22-.066-.008.002c-.191.036-.328.21-.433.4l-.233.496c.061-.107.131-.309.233-.496 .068-.187.101-.357.078-.495-.185-.062-.345-.153-.415-.346 .265.033.389.161.415.346l.362.093 .157-.022-.756-1.063-.271-.111c-.354-.089-.704-.178-.348-.798l-.131-.195-.06.12 .035-.154-.553-.828c-.336.035-.729.123-1.026.113l.341-.655c-.313.19-.568.268-.756.249-.176.424-.391.867-.49,1.176-.348.655 1.355-.669.587.462 .769-1.131-.935.193-.587-.462 .1-.309.314-.752.49-1.176-.399-.036-.504-.494-.252-1.211 .705-.15.542.501.252,1.211 .188.019.443-.059.756-.249l-.341.655c.297.01.69-.078 1.026-.113l-1.13-1.623c-2.409-3.637-5.434-6.197-8.522-9.523-1.635-1.857-3.167-3.754-4.667-5.771-3.106-4.093-7.682-4.6-11.133-9.809-1.427-1.947-5.429-2.517-7.477-2.746-3.13,1.701-2.774,8.018-2.828,8.359 .219,5.429 1.853,2.672 3.331,6.44-1.14-2.153 2.412-2.829 2.546,1.192-.134,5.708 4.426,3.349 6.26,6.056 .407.682 1.163.906 1.814,1.468 2.547,3.978 7.198,4.832 10.571,8.495 .96.868 2.707.688 4.005.969 .755.397.892,1.505 1.364,1.965 .741.739 1.726,1.038 2.782,1.227-.866-.516-1.632-.755-2.537-1.376-.57-.444 1.641-.933 2.262-.859 .371-.074-.525,1.261-.155,1.183 .314.318 1.056.169 1.682.235 .372-.072-.667.895-.482.858 .69.24 2.352-.633 2.361-.06l.142,1.096c.065.184.139.356.308.454l.507.019c.253-.366.617-.753.985-1.143 .063.182.003.575.066.757-.063-.182-.004-.575-.066-.757-.368.39-.732.776-.985,1.143 1.21.06 2.437.309 3.526.591l.084-.096c-.478-.31-.745-.794-.497-1.802-.063.396-.373.639-.625.487l.372-.641c.627.092 1.256.187.815,1.223l.567-.09c-.04.248-.374.543-.633.822l.304.166c.37-.645.549-1.797.549-1.798z" fill="#930"/>
 <path d="m402.813,527.645 .27.114-.616-.907c-.363.616-.01.704.346.793z" fill="#930"/>
 <path d="m491.979,447.792-.521-.215c.065.121.114.299.143.563 .076.188.217-.101.378-.348z" fill="#930"/>
 <path d="m490.979,447.367-.092-.04-.112.102 .204-.062z" fill="#930"/>
 <path d="m489.955,447.463c.146.122.314.119.49.074-.109-.14-.265-.187-.49-.074z" fill="#930"/>
 <path d="m490.614,448.001c-.006-.22.021-.441.155-.57l.005-.003-.329.109c.081.107.136.268.169.464z" fill="#930"/>
 <path d="m490.614,448.001c.007.213.047.421.048.544l-.048-.544z" fill="#930"/>
 <path d="m489.158,452.797c-.127.129.238-1.24-.019-.983-.519.264-1.037.815-1.435.728-.256.27-.18-1.325-.436-1.057-.526.294-2.033,1.912-1.374,1.969 1.004.009 1.721-.234 2.645-.286 .828-.364 1.667-.838 2.516-1.14 .218-.009.378.148.543.292l-.615-.839c-.273-.48-1.176,1.159-1.825,1.316z" fill="#930"/>
 <path d="m495.697,449.692-.413.382c-.127-1.093-.68-.829-1.222-.564v.732c.27-.01.408-.382.271-.74 .271.966.705,1.222 1.233,1.216 .08-.378.214-.801.131-1.026z" fill="#930"/>
 <path d="m495.887,450.684-.319.033-.024.122 .344-.12v-.035z" fill="#930"/>
 <path d="m487.657,448.279c-1.257-.222-2.414-.547-3.532-.935-.144.25-.271.551-.354.362-.04-.262-.099-.435-.169-.555l-.485-.185-.199.071-.005.006c-.126.143-.142.362-.124.576l.075.541c-.009-.123-.057-.33-.075-.541-.043-.189-.105-.346-.193-.441-.171.06-.339.081-.491-.03 .218-.131.377-.103.491.03l.322-.141 .107-.108-1.116-.404-.262.071c-.313.138-.625.275-.672-.432l-.199-.079 .017.132-.052-.144-.843-.335c-.237.229-.488.525-.718.69l-.076-.731c-.14.336-.292.547-.443.64 .084.447.148.933.23,1.242 .072.733.68-1.325.679.032 .001-1.357-.606.701-.679-.032-.082-.31-.146-.795-.23-1.242-.318.202-.631-.11-.806-.841 .454-.53.663.096.806.841 .151-.093.304-.304.443-.64 .025.245.076.731.076.731 .229-.165.48-.461.718-.69l-1.68-.665c-3.672-1.516-7.245-1.866-11.178-2.912-2.128-.612-4.166-1.467-6.171-2.403-4.029-1.967-7.855-.212-11.943-3.93-1.582-1.285-4.599-.634-6.151-.507-2.086,2.33-1.001,8.429-.916,8.773 1.222,5.202 2.201,2.333 4.653,5.41-1.679-1.739 1.336-3.348 2.84.274 2.115,5.517 5.523,1.241 8.268,2.854 .678.395 1.436.199 2.266.361 4.16,2.159 8.355.268 12.803,1.33 1.187.147 2.434-1.031 3.548-1.546 .771-.112 1.439.712 2.031.813 .934.152 1.826-.196 2.72-.673-.916.104-1.615.368-2.611.409-.657-.027.76-1.713 1.266-2.03 .242-.279.246,1.319.485,1.037 .398.067.882-.492 1.389-.811 .244-.279-.049,1.11.072.972 .642-.212 1.446-1.88 1.744-1.421l.652.808c.141.111.282.209.458.19l.392-.278c.009-.443.091-.969.175-1.498 .138.112.289.466.428.576-.139-.11-.29-.464-.428-.576-.084.529-.166,1.055-.175,1.498 .941-.646 1.998-1.178 2.973-1.589l.017-.126c-.521.032-.964-.198-1.28-1.152 .15.354.035.732-.233.759l-.037-.732c.523-.295 1.055-.588 1.236.501l.389-.404c.094.222-.016.653-.074,1.029l.314-.046c-.042-.726-.482-1.754-.483-1.754z" fill="#930"/>
 <path d="m482.592,447.135 .263-.068-.931-.36c.04.708.351.569.668.428z" fill="#930"/>
 <path d="m513.116,265.108-.493.265c.135.026.304.101.525.247 .194.061.058-.231-.032-.512z" fill="#930"/>
 <path d="m512.159,265.61-.088.045 .008.15 .08-.195z" fill="#930"/>
 <path d="m511.593,266.459c.187-.036.29-.167.365-.331-.178-.004-.312.087-.365.331z" fill="#930"/>
 <path d="m512.423,266.292c-.174-.134-.328-.295-.345-.48l.001-.005-.121.322c.133.005.292.065.465.163z" fill="#930"/>
 <path d="m512.423,266.292c.169.129.355.23.452.307l-.452-.307z" fill="#930"/>
 <path d="m515.229,270.444c.021.179-.812-.968-.772-.608-.117.564-.023,1.292-.327,1.553 .054.367-1.136-.695-1.084-.328-.095.593.243,2.771.688,2.298 .621-.762.856-1.487 1.399-2.208 .23-.863.384-1.805.68-2.646 .128-.173.35-.196.563-.231l-1.03-.061c-.541-.095.163,1.637-.117,2.231z" fill="#930"/>
 <path d="m516.914,263.452c.011.188.034.562.034.562-.919-.599-1.064-.005-1.2.581l.564.466c.161-.214-.038-.558-.4-.68 .913.406 1.382.235 1.708-.175-.239-.302-.48-.674-.706-.754z" fill="#930"/>
 <path d="m517.795,263.938-.175.268 .078.097 .123-.341-.026-.024z" fill="#930"/>
 <path d="m510.796,268.747c-.948.838-1.914,1.534-2.905,2.161 .107.268.264.553.064.5-.229-.131-.4-.193-.538-.214l-.442.263-.068.198 .002.008c.031.183.194.333.375.454l.472.279c-.103-.07-.293-.16-.472-.279-.177-.087-.34-.138-.473-.133-.061.167-.144.316-.323.365 .03-.25.146-.362.323-.365l.096-.328-.018-.15-1.009.612-.103.25c-.082.332-.162.661-.747.263l-.183.108 .113.068-.145-.048-.774.458c.037.328.118.707.109.988l-.623-.389c.181.315.254.565.236.741 .403.208.825.456 1.118.581 .621.395-.633-1.347.436-.512-1.068-.835.186.906-.436.512-.293-.125-.715-.373-1.118-.581-.034.374-.47.427-1.153.118-.144-.681.479-.463 1.153-.118 .018-.176-.056-.426-.236-.741l.623.389c.009-.281-.072-.66-.109-.988l-1.545.914c-3.449,1.943-5.84,4.611-9.014,7.133-1.73,1.362-3.651,2.479-5.561,3.58-3.95,2.148-4.69,6.284-10.072,7.563-1.958.587-3.106,3.469-3.871,4.828 .769,3.03 6.453,5.507 6.784,5.633 4.999,1.891 3.155-.508 7.052-.785-2.36.401-2.042-2.984 1.792-2.149 5.719,1.425 4.072-3.748 6.949-5.001 .702-.31.968-1.026 1.564-1.592 4.094-2.024 4.964-6.425 8.409-9.25 .794-.849.608-2.512.865-3.691 .371-.667 1.417-.679 1.848-1.074 .675-.63.931-1.538 1.091-2.528-.465.776-.674,1.482-1.233,2.281-.412.493-.895-1.646-.84-2.236-.074-.362 1.182.623 1.104.263 .29-.269.141-.991.195-1.584-.072-.364.837.726.805.55 .237-.605-.586-2.28-.043-2.219h1.028c.173-.039.335-.087.428-.234l.021-.477c-.339-.284-.698-.676-1.06-1.072 .172-.037.54.067.711.029-.171.038-.539-.066-.711-.029 .361.396.721.788 1.06,1.072 .072-1.131.306-2.283.585-3.296l-.087-.092c-.294.424-.745.623-1.682.271 .368.104.591.431.446.656l-.593-.43c.093-.591.192-1.188 1.149-.646 0,0-.05-.37-.074-.556 .229.067.497.423.753.705l.158-.273c-.587-.431-1.655-.734-1.656-.734z" fill="#930"/>
 <path d="m506.773,271.958 .115-.238-.857.497c.58.406.658.074.742-.259z" fill="#930"/>
 <path d="m70.986,289.959 .621.298c-.073-.132-.124-.319-.145-.59-.083-.201-.27.067-.476.292z" fill="#930"/>
 <path d="m72.179,290.543 .109.054 .144-.083-.253.029z" fill="#930"/>
 <path d="m73.438,290.611c-.17-.146-.378-.169-.597-.153 .124.158.311.23.597.153z" fill="#930"/>
 <path d="m72.667,289.966c-.007.221-.057.438-.229.546l-.006.002 .41-.057c-.092-.119-.147-.289-.175-.491z" fill="#930"/>
 <path d="m72.667,289.966c.006-.214-.03-.429-.025-.553l.025.553z" fill="#930"/>
 <path d="m74.805,285.414c.177-.105-.376,1.202-.024.994 .71-.187 1.407-.556 1.909-.331 .355-.189.101,1.423.449,1.233 .684-.13 2.837-1.243 1.986-1.535-1.32-.356-2.251-.397-3.468-.608-1.142.193-2.271.506-3.381.653-.284-.032-.491-.222-.705-.4l.788.972c.334.536 1.562-.955 2.446-.978z" fill="#930"/>
 <path d="m66.484,287.43 .485-.333c.197,1.155.845.964 1.507.779l-.012-.755c-.334-.034-.493.329-.319.721-.348-1.041-.906-1.382-1.552-1.461-.078.381-.219.801-.109,1.049z" fill="#930"/>
 <path d="m66.202,286.365 .391.016 .023-.124-.415.07 .001.038z" fill="#930"/>
 <path d="m76.284,290.452c1.493.619 2.854,1.313 4.146,2.05 .223-.201.437-.456.503-.243 0,.271.037.459.099.599l.556.335 .258-.004 .007-.004c.183-.095.249-.305.273-.522l.02-.555c-.014.124.004.341-.02.555 .014.199.051.384.133.518 .215.015.418.066.572.243-.287.035-.467-.062-.572-.243l-.413.009-.154.071 1.222.865 .324.042c.4-.002.803-.001.682.714l.212.163 .014-.136 .024.164 .899.688c.338-.122.714-.301 1.03-.361l-.111.742c.257-.265.496-.402.701-.427 .026-.469.083-.968.068-1.305 .108-.747-1.166.99-.804-.333-.362,1.323.912-.414.804.333 .015.336-.042.836-.068,1.305 .434-.056.719.384.709,1.16-.689.313-.749-.376-.709-1.16-.205.024-.444.162-.701.427 .039-.248.111-.742.111-.742-.316.06-.692.239-1.03.361l1.779,1.364c3.802,3.091 7.679,5.252 11.589,8.494 2.085,1.811 3.962,3.69 5.68,5.808 3.406,4.188 8.406,5.131 10.953,10.997 1.075,2.14 4.727,3.547 6.492,4.449 3.466-.651 5.347-6.628 5.428-6.98 1.282-5.29-1.239-3.45-2.376-7.705 .959,2.59-3.143,2.034-2.988-2.1 .381-6.186-5.476-4.768-7.875-7.985-.591-.799-1.552-1.129-2.429-1.823-3.887-4.676-9.698-5.702-14.896-9.208-1.432-.836-3.33-.447-4.933-.458-1.019-.268-1.653-1.396-2.391-1.788-1.163-.607-2.392-.698-3.62-.647 1.178.333 2.127.409 3.415.854 .831.345-1.404,1.313-2.1,1.394-.367.164.008-1.42-.361-1.255-.487-.256-1.22.072-1.916.155-.362.167.298-1.089.117-1.008-.872-.072-2.24,1.325-2.53.759l-.708-1.034c-.165-.161-.334-.309-.565-.352l-.547.143c-.076.443-.26.942-.447,1.445-.157-.159-.296-.565-.457-.724 .161.159.3.565.457.724 .188-.502.372-1.002.447-1.445-1.309.321-2.708.506-3.959.609l-.035.124c.646.135 1.178.52 1.436,1.584-.137-.406.055-.751.392-.69l-.056.75c-.69.127-1.365.261-1.455-.905l-.524.288c-.088-.256.094-.662.208-1.027l-.394-.056c-.023.757.385,1.94.384,1.94z" fill="#930"/>
 <path d="m82.252,293.224-.325-.042 1.011.755c.12-.717-.282-.716-.686-.713z" fill="#930"/>
 <path d="m200.504,155.784c-.52-.835-1.135-1.61-1.547-2.504l.544,1.406c.295.581.618.777 1.003,1.098z" fill="#930"/>
 <path d="m197.815,150.8-.197-.482-.211-.397 .408.879z" fill="#930"/>
 <path d="m196.221,145.903c.153.903.34,1.763.624,2.567-.168-.732-.325-1.586-.624-2.567z" fill="#930"/>
 <path d="m197.104,149.947c.001-.343.063-.514.296-.043l.008.017-.563-1.451c.129.54.212,1.033.259,1.477z" fill="#930"/>
 <path d="m197.104,149.947c-.018.34.104.819.113,1.004-.02-.302-.087-.623-.113-1.004z" fill="#930"/>
 <path d="m194.3,149.397c-.25-.522.457-.578.065-1.636-.798-2.526-1.31-4.823-1.183-7.345-.147-1.184.886-2.88.967-3.987 .022-2.659 2.57-9.469.718-5.666-2.467,5.901-2.402,10.2-1.546,15.604 1.102,4.346 3.064,8.307 6.166,11.575 .792.977 1.648,1.79 2.475,2.656-1.088-1.121-2.107-2.336-3.066-3.786-1.156-1.916-3.363-3.899-4.596-7.415z" fill="#930"/>
 <path d="m219.777,163.762c-.509.2-1.558.339-1.557.361-2.383-.281-4.782-.39-7.241-.722 .316.241.654.38 1,.572 1.428.212 1.602.042.393-.33 2.747.967 5.62,1.001 8.384.489-.198-.165-.192-.39-.979-.37z" fill="#930"/>
 <path d="m222.39,163.827-1.633.305 .073.052 1.617-.348-.057-.009z" fill="#930"/>
 <path d="m196.2,134.848c1.874-6.882 7.634-11.926 14.086-12.835 .463-.22.795-.441 1.467-.472 .528.094 1.039.144 1.55.167 .944-.082 1.881-.008 2.816.064l1.007-.001 .021-.002c.537-.03.402-.155.083-.29-.366-.095-.7-.201-.987-.311 .182.069.67.191.987.311 .432.13.924.298 1.492.42 .869.078 1.764.19 2.663.505-1.028-.223-1.914-.336-2.663-.505l-1.596-.127-.473.039c2.154.191 4.253.665 6.297,1.313 .461.156.907.308 1.27.42 1.502.395 2.906,1.146 3.563,1.891l.939.644-.146-.172 .313.286c1.303.921 2.511,1.995 3.589,3.188 .868.617 1.595,1.421 2.388,2.188 .01-.006.223.75.327,1.113 .379.27.867.713 1.28,1.327-.254-.865-.552-1.654-.847-2.377-.404-1.129-2.034-1.551-2.474-2.92 .44,1.369 2.07,1.792 2.474,2.92 .295.723.592,1.513.847,2.377 .902,1.272 1.69,3.149 1.977,4.755-1.037-1.712-1.533-3.295-1.977-4.755-.413-.613-.901-1.057-1.28-1.327-.104-.363-.317-1.119-.327-1.113-.792-.767-1.52-1.571-2.388-2.188 2.122,2.316 3.806,5.064 5.11,8.037 4.064,9.714 4.63,20.17 4.259,30.4-.725,10.066-1.511,21.161-5.797,30.698-5.672,10.333-12.992,19.472-19.336,28.994-6.045,9.613-12.698,18.875-13.202,31.643 .049,3.189 1.235,6.824 3.697,9.382 2.539,2.503 4.595,3.833 7.293,5.568 2.69,1.478 5.675,2.999 9.612,3.057 3.951.177 8.41-2.467 10.311-5.785 3.29-5.094 4.084-12.558 2.091-19.843-.591-1.85-1.331-3.732-2.729-5.623-1.289-1.836-4.346-4.08-7.701-3.691-6.266,1.271-7.348,4.742-9.005,6.542-5.17,11.562 1.026,7.02 1.17,6.764 2.699-2.422 4.55-5.15 7.229-6.774 2.106-1.71 5.234,2.606 4.856,9.225-.156-4.34.633-2.939.993.944 .495,3.711-1.574,10.574-4.978,11.126-2.006.536-4.303-.238-7.185-1.772-2.576-1.501-6.58-4.151-7.585-5.873-2.749-4.412.331-13.685 4.144-20.156 1.948-3.404 3.98-7.107 6.579-11.155 6.922-10.476 14.351-19.833 20.092-32.047 4.192-13.442 4.939-25.527 4.821-39.596-.299-7.348-2.045-13.801-4.396-19.669-1.591-4.32-3.769-8.995-6.396-12.014-4.079-4.784-9.35-7.333-14.283-8.199 5.444,1.311 9.499,3.352 13.924,7.978 2.712,3.245-2.438-1.834-4.929-3.059-1.051-.507-2.167-2.238-3.353-2.584-2.309-1.224-4.704-1.605-7.358-1.995-1.153-.02-.906-.699-1.493-.71-3.737-.349-6.549.648-8.855.919-1.782.185-3.405.57-4.91,1.155-.973.347-1.873.837-2.766,1.451-.56.377-1.045.89-1.554,1.372 .562-.176.872-.085 1.174.015-.782.553-1.931,1.306-2.6,2.03 .669-.725 1.818-1.478 2.6-2.03-.302-.1-.612-.191-1.174-.015-3.696,3.441-5.898,8.85-6.271,13.795l.072-.062c.37-2.86 1.377-5.66 3.287-7.971-.782,1.026-.883.807-.159-.509l.937-.737c-1.336,2.21-2.145,4.544-3.279,6.732 0,.001-.089,1.106-.129,1.646-.261.766-.433.701-.657.839l-.163,1.708c.421-1.213 1.61-4.727 1.714-4.684z" fill="#930"/>
 <path d="m218.783,121.929c-.388-.037-.851-.092-1.345-.151 1.799.257 3.565.632 5.284,1.182-.823-.544-2.359-.958-3.939-1.031z" fill="#930"/>
 <path d="m229.589,68.203c.004-1.083.006-2.17.176-3.232-.089.538-.282,1.059-.389,1.608-.082.712.067,1.093.213,1.624z" fill="#930"/>
 <path d="m230.41,62.068 .188-.533 .095-.479-.283,1.012z" fill="#930"/>
 <path d="m232.813,57.099c-.641.74-1.164,1.542-1.521,2.389 .384-.711.917-1.48 1.521-2.389z" fill="#930"/>
 <path d="m230.442,60.87c.211-.296.362-.399.256.166l-.005.021c.12-.548.397-1.035.598-1.568-.28.528-.63.957-.849,1.381z" fill="#930"/>
 <path d="m230.442,60.87c-.204.289-.467.767-.585.932 .19-.271.386-.578.585-.932z" fill="#930"/>
 <path d="m228.788,58.448c.236-.62.716-.182 1.299-1.332 1.473-2.643 3.446-4.728 6.12-5.965 1.191-.757 3.407-.53 4.597-.88 2.915-.987 10.677-.563 6.167-1.174-6.749-.544-12.23,1.026-16.405,6.11-3.096,4.339-3.791,9.463-3.027,14.326 .17,1.375.349,2.674.702,3.945-.414-1.67-.542-3.432-.565-5.346 .114-2.455-.604-5.726 1.112-9.684z" fill="#930"/>
 <path d="m244.152,83.372c-.553.129-1.693.438-1.696.403-2.566-.435-5.096-1.058-7.355-2.583 .222.367.485.676.785.98 1.391.778 1.602.678.508-.152 2.456,2.038 5.844,2.451 8.84,1.678-.229-.17-.221-.299-1.082-.326z" fill="#930"/>
 <path d="m246.993,83.182-1.759.516 .083.042 1.741-.557-.065-.001z" fill="#930"/>
 <path d="m243.212,51.643c7.877-.134 14.935,3.179 21.115,6.681 .535.189.952.273 1.527.754l1.282,1.152c.864.606 1.761,1.151 2.582,1.8l.916.644 .02.011c.516.3.451.109.225-.198-.281-.314-.526-.617-.725-.891 .126.173.501.586.725.891 .333.373.735.776 1.219,1.204 .789.562 1.596,1.148 2.392,1.835-.967-.663-1.757-1.267-2.392-1.835l-1.463-1.017-.449-.269c1.848,1.546 3.83,2.902 5.513,4.625 .414.356.813.701 1.142.97 1.366,1.071 2.673,2.229 3.116,3.288l.85.958-.118-.223 .27.392c1.24,1.308 2.348,2.734 3.396,4.213 .795.87 1.748,1.669 2.455,2.656l.357,1.23c.409.317.886.854 1.373,1.517-.335-.931-.622-1.824-.947-2.612-.326-1.291-2.158-1.826-2.499-3.388 .34,1.562 2.173,2.097 2.499,3.388 .325.788.612,1.681.947,2.612 1.107,1.348 1.889,3.476 2.407,5.189-1.282-1.823-1.767-3.655-2.407-5.189-.487-.663-.964-1.2-1.373-1.517-.115-.405-.357-1.23-.357-1.23-.708-.987-1.66-1.786-2.455-2.656 2.148,2.795 4.008,5.876 5.586,9.13 5.261,10.446 6.85,22.009 5.432,33.167-1.182,11.283-6.168,21.832-11.333,32.951-5.705,12.007-11.575,23.543-15.373,35.881-3.692,12.275-4.71,25.226-.819,37.557 1.937,5.929 4.438,11.787 8.372,17.18 3.838,5.281 9.931,10.362 17.76,11.34 5.576.461 15.131.218 20.561-9.788 1.158-2.584 1.028-6.588-.997-9.181-1.946-2.674-4.449-3.647-6.464-4.246-2.085-.596-3.902-.678-5.605-.779-.821.009-1.592.061-2.339.092l-1.09.055-.264.014-.131.007-.016.001c-1.456.865 3.246-1.937-3.265,1.94l-.005.009-.021.037-.042.075-.328.591c-.99,1.652-1.878,5.21-.164,7.709 1.761,2.297 2.679,2.021 3.165,2.277 .833-1.29 3.182-1.759.936-1.47 1.313.769.772-1.415.367-1.572-1.393-1.824-.421-2.911.7-4.243-.481.837 3.06.346 4.532.825 4.167.258 8.237,4.419 1.694,8.169 3.25-2.536 2.895-1.123-.344,1.333-3.367,2.414-10.688,2.876-14.419.365-10.239-6.297-20.468-25.768-17.966-42.801 .601-4.212 1.171-8.71 2.584-13.7 3.961-12.827 9.879-24.75 15.396-37.359 5.465-12.381 11.264-26.478 10.764-42.338-.249-8.357-2.727-15.484-5.744-21.667-2.049-4.597-4.507-9.438-6.963-12.728-3.724-5.292-8.033-8.871-12.091-12.152 4.394,3.847 7.745,6.616 11.725,11.904 2.654,3.503-2.485-1.993-4.582-3.908-.942-.792-1.675-2.752-2.626-3.548-2-1.785-3.919-3.341-6.299-4.92-1.055-.621-.502-1.09-1.033-1.404-3.128-2.375-6.232-3.079-8.141-4.645-1.66-1.147-3.087-1.884-4.522-2.783-.939-.482-1.901-.911-2.925-1.33-.66-.216-1.325-.465-2.044-.626 .46.39.56.696.636,1.028-.938-.397-2.26-.993-3.228-1.373 .968.38 2.291.976 3.228,1.373-.076-.332-.176-.639-.636-1.028-4.928-1.36-11.11-2.468-16.524-.786l.093.042c3.143-.813 6.406-.606 9.522.39-1.373-.341-1.17-.552.449-.308l1.131.643c-2.783-.514-5.523-.581-8.212-.903-.001.005-1.195.269-1.768.43-.881.114-.892-.113-1.122-.252-.617.176-1.24.294-1.822.601 1.394-.338 5.505-.328 5.491-.263z" fill="#930"/>
 <path d="m272.14,63.751c-.355-.249-.774-.554-1.222-.881 1.544,1.298 3.211,2.445 4.617,3.891-.521-1.012-1.944-2.03-3.395-3.01z" fill="#930"/>
 <path d="m322.402,56.949c.696-.434 1.458-.782 2.253-1.015l-1.269.223c-.516.196-.743.417-.984.792z" fill="#930"/>
 <path d="m326.933,55.509 .444-.03 .377-.096-.821.126z" fill="#930"/>
 <path d="m331.365,55.648c-.77-.216-1.535-.31-2.271-.321 .642.095 1.386.213 2.271.321z" fill="#930"/>
 <path d="m327.812,55.08c.284.112.404.219-.041.3l-.017.003 1.341-.057c-.477-.055-.904-.149-1.283-.246z" fill="#930"/>
 <path d="m327.812,55.08c-.273-.078-.707-.138-.865-.184l.865.184z" fill="#930"/>
 <path d="m329.109,52.619c.541-.057.356.62 1.391.626 2.413.194 4.565.597 6.549,1.708 1.019.349 1.948,1.89 2.81,2.362 2.124,1.079 6.864,5.063 4.4,2.419-3.961-3.744-7.224-5.769-12.193-6.939-4.07-.659-8.472.058-11.707,2.947-.893.793-1.702,1.594-2.329,2.568 .886-1.207 2.001-2.284 3.443-3.041 1.809-.949 4.111-2.661 7.636-2.65z" fill="#930"/>
 <path d="m323.754,72.845c-.397-.255-1.157-.821-1.162-.818-1.082-1.849-2.549-3.397-3.524-5.356l.089,1.023c.586,1.141.87,1.119.474.084 .771,2.462 2.483,4.41 4.414,5.978 .007-.245.177-.391-.291-.911z" fill="#930"/>
 <path d="m325.214,74.661-1.17-.905 .004.084 1.192.866-.026-.045z" fill="#930"/>
 <path d="m340.275,59.685c4.771,4.161 7.861,9.441 10.209,14.718 .323.343.57.585.727,1.169l.284,1.365c.319.792.619,1.565.846,2.38l.333.839 .009.016c.225.429.287.267.294-.046l-.034-.934c-.005.176.041.625.034.934 .038.403.111.857.234,1.362 .294.724.555,1.483.718,2.317-.306-.891-.552-1.652-.718-2.317l-.537-1.332-.191-.378c.598,1.847 1.134,3.693 1.562,5.582 .131.42.256.827.367,1.151 .452,1.322.782,2.688.64,3.599l.192,1.014 .021-.205 .014.385 .611,4.328 .737,2.83-.244,1.018c.212.376.416.932.504,1.587 .176-.799.294-1.543.376-2.228 .233-1.032-.921-2.111-.435-3.357-.486,1.246.668,2.325.435,3.357-.082.684-.2,1.428-.376,2.228 .202,1.378.23,3.182-.079,4.628-.356-1.769-.203-3.278.079-4.628-.088-.656-.292-1.211-.504-1.587l.244-1.018-.737-2.83c.313,2.835.53,5.715.616,8.652 .123,18.839-2.685,36.579-8.13,55.259-3.447,10.088-7.342,19.686-10.26,29.583-2.766,9.825-4.336,20.167-1.483,30.479 1.543,5.151 4.42,9.75 7.594,13.784 3.316,3.989 7.205,8.461 14.078,10.14 5.396,1.675 14.229-2.5 16.613-9.852 1.237-3.138 2.24-9.063-3.082-12.775-5.089-2.505-8.246-.763-10.357-.197-9.985,6.111-2.63,6.113-2.49,6.002 3.245-.28 6.028-1.318 8.593-.857 2.3-.09 2.82,4.673-1.239,8.221 2.309-2.522 2.204-1.242.123,1.216-2.104,2.634-7.552,3.129-10.135.415-3.632-3.167-7.956-8.508-11.283-14.101-2.932-5.639-3.791-12.996-2.655-19.746 .54-3.368 1.129-7.004 2.151-11.076 3.104-10.473 6.924-20.491 10.09-31.309 3.198-11.354 4.438-22.038 6.104-34.179 .677-6.385.289-12.109-.156-17.514-.129-3.949-.182-8.219-.558-11.441-.692-5.054-1.786-9.351-3.256-13.297 1.409,4.479 2.217,7.823 3.082,12.987 .465,3.451-1.184-2.296-1.813-4.49-.321-.932.105-2.592-.246-3.523-.4-2.112-1.319-3.912-2.08-6.067-.453-.879.261-.98.033-1.424-1.062-2.963-2.884-4.908-3.461-6.784-.578-1.412-1.021-2.719-1.579-3.949-.384-.765-.771-1.521-1.235-2.288l-1.079-1.361c.068.5-.066.779-.208,1.052-.422-.705-.911-1.776-1.365-2.481 .454.706.943,1.776 1.365,2.481 .142-.273.276-.552.208-1.052-2.608-3.26-6.033-6.761-9.905-8.97l.019.087c2.143,1.419 4.024,3.181 5.385,5.466-.642-.947-.405-.979.507-.028l.353,1.004c-1.567-1.655-3.235-3.092-4.565-4.84-.001-.001-.864-.477-1.288-.707-.507-.515-.377-.645-.391-.895l-1.315-.78c.798.823 3.108,3.195 3.085,3.208z" fill="#930"/>
 <path d="m353.208,81.55c-.13-.324-.274-.716-.43-1.135 .502,1.545.932,3.108 1.288,4.689 .097-.908-.295-2.257-.858-3.554z" fill="#930"/>
</svg>
